# xmcd
#
# Track frame offsets:
#   150
#   15995
#   37449
#   63495
#   86632
#   113270
#   131614
#   152521
#   170905
#   188628
#   203393
#   220811
#   246281
#   263752
#   284532
#   300367
#   326725
#
# Disc length: 4696 seconds
#
# Revision: 0
# Processed by: cddbd v1.5.1PL0 Copyright (c) Steve Scherf et al.
# Submitted via: uFREEDB ActiveX Control 1.5
#
DISCID=e9125611
DTITLE=FGS - DFGD
DYEAR=1900
DGENRE=FSDG
TTITLE0=DG
TTITLE1=SFSE
TTITLE2=FSEFS
TTITLE3=EFESF
TTITLE4=FEFA
TTITLE5=FAWER
TTITLE6=SEDFAWD
TTITLE7=AWEDWBAWE
TTITLE8=RBAW
TTITLE9=AWRVA
TTITLE10=VWAEVWA
TTITLE11=AWVEAW
TTITLE12=5RWNYU
TTITLE13=YURYSR
TTITLE14=BTYESS
TTITLE15=NRTSET
TTITLE16=BRT4AAAAAAAAAAAAAA
EXTD=
EXTT0=
EXTT1=
EXTT2=
EXTT3=
EXTT4=
EXTT5=
EXTT6=
EXTT7=
EXTT8=
EXTT9=
EXTT10=
EXTT11=
EXTT12=
EXTT13=
EXTT14=
EXTT15=
EXTT16=
PLAYORDER=
